<?xml version="1.0" encoding="UTF-8" standalone="no"?>
<!-- Created with Inkscape (http://www.inkscape.org/) -->

<svg
   xmlns:dc="http://purl.org/dc/elements/1.1/"
   xmlns:cc="http://creativecommons.org/ns#"
   xmlns:rdf="http://www.w3.org/1999/02/22-rdf-syntax-ns#"
   xmlns:svg="http://www.w3.org/2000/svg"
   xmlns="http://www.w3.org/2000/svg"
   xmlns:sodipodi="http://sodipodi.sourceforge.net/DTD/sodipodi-0.dtd"
   xmlns:inkscape="http://www.inkscape.org/namespaces/inkscape"
   width="90.497734mm"
   height="90.296143mm"
   viewBox="0 0 90.497736 90.29614"
   version="1.1"
   id="svg8"
   inkscape:version="0.92.3 (2405546, 2018-03-11)"
   sodipodi:docname="sword.svg"
   inkscape:export-filename="/home/quentin/Documents/assets/sword.png"
   inkscape:export-xdpi="96"
   inkscape:export-ydpi="96">
  <defs
     id="defs2" />
  <sodipodi:namedview
     id="base"
     pagecolor="#ffffff"
     bordercolor="#666666"
     borderopacity="1.0"
     inkscape:pageopacity="0.0"
     inkscape:pageshadow="2"
     inkscape:zoom="2.8"
     inkscape:cx="202.74469"
     inkscape:cy="161.44929"
     inkscape:document-units="mm"
     inkscape:current-layer="layer1"
     showgrid="true"
     fit-margin-top="0"
     fit-margin-left="0"
     fit-margin-right="0"
     fit-margin-bottom="0"
     inkscape:window-width="3798"
     inkscape:window-height="2004"
     inkscape:window-x="16"
     inkscape:window-y="135"
     inkscape:window-maximized="0">
    <inkscape:grid
       type="xygrid"
       id="grid845"
       spacingx="1.3229167"
       spacingy="1.3229167"
       originx="-79.266459"
       originy="-154.44344" />
  </sodipodi:namedview>
  <metadata
     id="metadata5">
    <rdf:RDF>
      <cc:Work
         rdf:about="">
        <dc:format>image/svg+xml</dc:format>
        <dc:type
           rdf:resource="http://purl.org/dc/dcmitype/StillImage" />
        <dc:title></dc:title>
      </cc:Work>
    </rdf:RDF>
  </metadata>
  <g
     inkscape:label="Layer 1"
     inkscape:groupmode="layer"
     id="layer1"
     transform="translate(-79.266448,-52.260398)">
    <g
       id="g914"
       transform="rotate(45,126.33854,95.731868)">
      <g
         transform="matrix(1,0,0,1.0606859,0,-2.0131116)"
         id="g860">
        <path
           style="opacity:1;fill:#b3b3b3;fill-opacity:1;stroke:none;stroke-width:0.76499999;stroke-miterlimit:4;stroke-dasharray:none;stroke-dashoffset:0;stroke-opacity:0.90462431"
           d="m 110.69248,49.047619 15.60134,-14.813396 15.69076,14.813396 c 0.13057,0.123271 0.32345,0.168577 0.32345,0.377976 v 27.497768 27.497767 c 0,0.1047 -0.0361,0.1992 -0.0945,0.26752 -0.0585,0.0683 -0.13932,0.11046 -0.22892,0.11046 h -15.64605 -15.64605 c -0.0896,0 -0.17045,-0.0421 -0.22891,-0.11046 -0.0585,-0.0683 -0.0945,-0.16282 -0.0945,-0.26752 V 49.425595 c 0,-0.209399 0.19766,-0.25036 0.32344,-0.377976 z"
           id="rect837"
           inkscape:connector-curvature="0"
           sodipodi:nodetypes="ccsscssscsssssc" />
        <path
           sodipodi:nodetypes="cccsssssc"
           inkscape:connector-curvature="0"
           id="path856"
           d="m 110.69248,49.047619 15.60812,-14.810612 0.038,70.562103 h -15.64605 c -0.0896,0 -0.17045,-0.0421 -0.22891,-0.11046 -0.0585,-0.0683 -0.0945,-0.16282 -0.0945,-0.26752 V 49.425595 c 0,-0.209399 0.19766,-0.25036 0.32344,-0.377976 z"
           style="opacity:1;fill:#a4a4ab;fill-opacity:1;stroke:none;stroke-width:0.76499999;stroke-miterlimit:4;stroke-dasharray:none;stroke-dashoffset:0;stroke-opacity:0.90462431" />
        <path
           inkscape:connector-curvature="0"
           id="rect916"
           transform="scale(0.26458333)"
           d="m 417.14258,195.75977 v 63.44531 l 120.71484,41.5 v -9.9707 -53.47657 z"
           style="opacity:1;fill:#ffffff;fill-opacity:0.11992265;stroke:none;stroke-width:2.89133859;stroke-miterlimit:4;stroke-dasharray:none;stroke-dashoffset:0;stroke-opacity:0.90462431" />
        <path
           inkscape:connector-curvature="0"
           id="rect916-0"
           transform="scale(0.26458333)"
           d="m 417.14258,264.49219 v 24.74804 l 120.71484,41.5 v -24.74804 z"
           style="opacity:1;fill:#ffffff;fill-opacity:0.11992265;stroke:none;stroke-width:1.80855465;stroke-miterlimit:4;stroke-dasharray:none;stroke-dashoffset:0;stroke-opacity:0.90462431" />
      </g>
      <path
         sodipodi:nodetypes="sssscsssssscsss"
         inkscape:connector-curvature="0"
         id="rect847"
         d="m 96.613004,108.33522 h 59.451066 c 0.0897,0 0.17057,0.0381 0.22906,0.0997 0.0585,0.0616 0.0315,0.16591 0.0946,0.24134 l 3.70651,4.43302 -3.70651,4.43302 c -0.063,0.0754 -0.0361,0.17971 -0.0946,0.24135 -0.0585,0.0616 -0.1394,0.0996 -0.22906,0.0996 H 96.613004 c -0.08965,0 -0.170562,-0.038 -0.229061,-0.0996 -0.0585,-0.0616 -0.03152,-0.16592 -0.09459,-0.24135 l -3.706507,-4.43302 3.706507,-4.43302 c 0.06307,-0.0754 0.03608,-0.1797 0.09459,-0.24134 0.0585,-0.0616 0.139411,-0.0997 0.229061,-0.0997 z"
         style="opacity:1;fill:#787878;fill-opacity:1;stroke:none;stroke-width:0.72684938;stroke-miterlimit:4;stroke-dasharray:none;stroke-dashoffset:0;stroke-opacity:0.90462431" />
      <rect
         ry="0.37797582"
         rx="0.29109818"
         y="117.87703"
         x="120.38542"
         height="29.104166"
         width="11.906245"
         id="rect850"
         style="opacity:1;fill:#905823;fill-opacity:1;stroke:none;stroke-width:0.72574294;stroke-miterlimit:4;stroke-dasharray:none;stroke-dashoffset:0;stroke-opacity:0.90462431" />
      <circle
         r="9.260417"
         cy="149.0307"
         cx="126.16359"
         id="path852"
         style="opacity:1;fill:#787878;fill-opacity:1;stroke:none;stroke-width:0.76499999;stroke-miterlimit:4;stroke-dasharray:none;stroke-dashoffset:0;stroke-opacity:0.90462431" />
    </g>
  </g>
</svg>
